<svg version="1.1" id="Layer_1" xmlns="http://www.w3.org/2000/svg" xmlns:xlink="http://www.w3.org/1999/xlink" x="0px" y="0px" viewBox="0 0 1922.43 912" style="enable-background:new 0 0 1922.43 912;" xml:space="preserve">
<style type="text/css">
	.st0{fill:none;stroke:#58BE96;stroke-width:3;stroke-linecap:round;stroke-linejoin:round;stroke-miterlimit:10;}
	.st1{fill:#1194F6;}
	.st2{fill:#FFFFFE;}
	
		.st3{fill:none;stroke:#FFFFFE;stroke-width:5;stroke-linecap:round;stroke-linejoin:round;stroke-miterlimit:10;stroke-dasharray:2,200;}
	
		.st4{fill:none;stroke:#FFFFFE;stroke-width:5;stroke-linecap:round;stroke-linejoin:round;stroke-miterlimit:10;stroke-dasharray:20,200;}
	
		.st5{fill:none;stroke:#FFFFFE;stroke-width:5;stroke-linecap:round;stroke-linejoin:round;stroke-miterlimit:10;stroke-dasharray:80,100;}
	.st6{fill:#58BE96;}
	.st7{fill:none;stroke:#FFFFFE;stroke-width:4;stroke-linecap:round;stroke-linejoin:round;stroke-miterlimit:10;}
	.st8{fill:none;stroke:#1194F6;stroke-width:4;stroke-miterlimit:10;}
	.st9{fill:none;stroke:#FFFFFF;stroke-width:4;stroke-miterlimit:10;}
</style>
<g>
	<path class="st0" d="M768.56,723.22L698.16,730c-2.79,0.27-5.43-0.53-7.52-2.07v-0.01c-2.43-1.77-4.11-4.55-4.43-7.78l-6.79-70.4   c-0.58-6.03,3.83-11.38,9.86-11.96l70.4-6.79c2.89-0.27,5.62,0.59,7.75,2.23c2.31,1.79,3.91,4.5,4.21,7.63l6.78,70.41   C779,717.28,774.58,722.64,768.56,723.22z"/>
	
		<rect x="594.04" y="452.71" transform="matrix(0.9954 -0.0959 0.0959 0.9954 -43.4718 90.5354)" class="st1" width="652.24" height="89.65"/>
	
		<rect x="955.8" y="671.77" transform="matrix(0.9954 -0.0959 0.0959 0.9954 -61.2996 103.5493)" class="st2" width="181.69" height="35.5"/>
	
		<rect x="949.39" y="603.39" transform="matrix(0.9954 -0.0959 0.0959 0.9954 -54.6048 106.0954)" class="st2" width="254.17" height="35.5"/>
	<path class="st3" d="M1242.57,439.94L1242.57,439.94l-7.96-82.64c-1.47-15.3-15.07-26.51-30.37-25.03L610.08,389.5   c-15.3,1.47-26.51,15.07-25.03,30.37l7.66,79.47l0,0l27.23,282.61c1.47,15.3,15.07,26.51,30.37,25.03l594.16-57.24   c15.3-1.47,26.51-15.07,25.03-30.37L1242.57,439.94z"/>
	<g>
		<polygon class="st2" points="1210.92,714.73 1229.21,780.82 1242.36,754.94 1273.3,750.72   "/>
		
			<rect x="1247.64" y="748.65" transform="matrix(0.7937 -0.6083 0.6083 0.7937 -209.4546 920.6694)" class="st2" width="10.26" height="41.04"/>
	</g>
	<path class="st4" d="M1242.57,439.94L1242.57,439.94l-7.96-82.64c-1.47-15.3-15.07-26.51-30.37-25.03L610.08,389.5   c-15.3,1.47-26.51,15.07-25.03,30.37l7.66,79.47l0,0l27.23,282.61c1.47,15.3,15.07,26.51,30.37,25.03l594.16-57.24   c15.3-1.47,26.51-15.07,25.03-30.37L1242.57,439.94z"/>
	<path class="st5" d="M1242.57,439.94L1242.57,439.94l-7.96-82.64c-1.47-15.3-15.07-26.51-30.37-25.03L610.08,389.5   c-15.3,1.47-26.51,15.07-25.03,30.37l7.66,79.47l0,0l27.23,282.61c1.47,15.3,15.07,26.51,30.37,25.03l594.16-57.24   c15.3-1.47,26.51-15.07,25.03-30.37L1242.57,439.94z"/>
	<path class="st6" d="M768.56,723.22L698.16,730c-2.79,0.27-5.43-0.53-7.52-2.07v-0.01l76.77-94.69l0.02-0.01   c2.31,1.79,3.91,4.5,4.21,7.63l6.78,70.41C779,717.28,774.58,722.64,768.56,723.22z"/>
	<polyline class="st7" points="681.54,671.79 728.92,666.53 734.55,693.97 776.32,689.52  "/>
	<path class="st8" d="M0.44,734.65c0,0,126.55,28.86,107.73,177.09"/>
	<path class="st8" d="M1472.89,908.6c0,0,30.03-232.83,217.16-254.42c187.13-21.59,230.4-341.08,230.4-341.08"/>
	<path class="st0" d="M1629.89,1.5c0,0-40.44,856.16,286.75,820.62"/>
	<path class="st9" d="M0.44,424.78c0,0,270.67,0,299.01,483.82"/>
	<path class="st9" d="M1726.22,908.6c0,0-113.31-651.55,190.43-823.62"/>
	<path class="st2" d="M438.08,818.09c0,6.28-5.09,11.38-11.38,11.38s-11.38-5.09-11.38-11.38s5.09-11.38,11.38-11.38   S438.08,811.81,438.08,818.09z"/>
	<path class="st2" d="M1432.63,601.69c0,6.28-5.09,11.38-11.38,11.38s-11.38-5.09-11.38-11.38s5.09-11.38,11.38-11.38   S1432.63,595.4,1432.63,601.69z"/>
	<circle class="st2" cx="1568.85" cy="216.2" r="11.38"/>
	<path class="st1" d="M415.32,485.24c0,6.28-5.09,11.38-11.38,11.38s-11.38-5.09-11.38-11.38s5.09-11.38,11.38-11.38   S415.32,478.96,415.32,485.24z"/>
	
		<ellipse transform="matrix(0.7496 -0.6618 0.6618 0.7496 53.0487 1358.7053)" class="st1" cx="1822.46" cy="609.23" rx="11.38" ry="11.38"/>
	<circle class="st1" cx="97.5" cy="719.89" r="11.38"/>
	<path class="st1" d="M1377.65,783.97c0,4.58-3.72,8.3-8.3,8.3c-4.58,0-8.3-3.72-8.3-8.3c0-4.58,3.72-8.3,8.3-8.3   C1373.94,775.67,1377.65,779.39,1377.65,783.97z"/>
</g>
</svg>